<?xml version="1.0" encoding="UTF-8"?>
<!-- Generator: Adobe Illustrator 23.0.1, SVG Export Plug-In . SVG Version: 6.00 Build 0)  -->
<svg version="1.1" id="Layer_4" xmlns="http://www.w3.org/2000/svg" xmlns:xlink="http://www.w3.org/1999/xlink" x="0px" y="0px" viewBox="0 0 1473.1 222.3" style="enable-background:new 0 0 1473.1 222.3;" xml:space="preserve">
<style type="text/css">
	.st0{fill:#0071BC;}
</style>
<g>
	<path class="st0" d="M206.2,109.1c0,58.3-39.7,108.5-120.6,108.5H0V0.6h85.6C166.8,0.6,206.2,50.9,206.2,109.1z M151,109.1   c0-32.2-19.9-58.3-69.5-58.3H59.2v116.6h22.3C131.2,167.4,151,141.1,151,109.1z"/>
	<path class="st0" d="M334,122.2c0,44,0,95.5,0,95.5h-52.1v-14.6c-9.3,12.4-24.5,19.2-43.7,19.2c-8.7,0-43.7-5.6-45-43.7   c-0.9-32.2,20.8-46.8,42.5-50.6c14-2.5,35.7-3.7,46.2-4c0-6.2-3.4-19.5-21.7-19.5c-20.2,0-38.4,8.4-45.6,12.1l-14.3-33.8   c11.2-7.8,37.2-18.9,66.4-18.9C299.9,63.9,334,76.3,334,122.2z M281.9,167.4c0-4.6,0-16.1,0-16.1s-20.8-0.9-29.8,5.6   c-11.2,7.8-7.4,26.4,10.5,26.4C277.6,183.3,281.9,173.6,281.9,167.4z"/>
	<path class="st0" d="M454.2,212.1c-5.9,3.7-23.6,10.2-45.3,10.2c-48.1,0-54.3-36.6-54.3-77.5c0-5.6,0-16.4,0-29.1h-20.8V68.8h20.8   c0-18,0-31.9,0-31.9l52.4-6.5c0,0,0,17.4,0,38.5h38.5v46.8h-38.5c0,14.3,0,25.1,0,27.9c0,28.2,13.3,36.6,35.7,25.7L454.2,212.1z"/>
	<path class="st0" d="M588,122.2c0,44,0,95.5,0,95.5h-52.1v-14.6c-9.3,12.4-24.5,19.2-43.7,19.2c-8.7,0-43.7-5.6-45-43.7   c-0.9-32.2,20.8-46.8,42.5-50.6c14-2.5,35.7-3.7,46.2-4c0-6.2-3.4-19.5-21.7-19.5c-20.2,0-38.5,8.4-45.6,12.1l-14.3-33.8   c11.2-7.8,37.2-18.9,66.4-18.9C553.9,63.9,588,76.3,588,122.2z M535.9,167.4c0-4.6,0-16.1,0-16.1s-20.8-0.9-29.8,5.6   c-11.2,7.8-7.4,26.4,10.5,26.4C531.6,183.3,535.9,173.6,535.9,167.4z"/>
	<path class="st0" d="M662.4,50.9V84h87.8v50.2h-87.8v83.4h-59.5V0.6h156.9v50.2L662.4,50.9L662.4,50.9z"/>
	<path class="st0" d="M888.3,122.2c0,44,0,95.5,0,95.5h-52.1v-14.6c-9.3,12.4-24.5,19.2-43.7,19.2c-8.7,0-43.7-5.6-45-43.7   c-0.9-32.2,20.8-46.8,42.5-50.6c14-2.5,35.7-3.7,46.2-4c0-6.2-3.4-19.5-21.7-19.5c-20.2,0-38.5,8.4-45.6,12.1l-14.3-33.8   c11.2-7.8,37.2-18.9,66.4-18.9C854.2,63.9,888.3,76.3,888.3,122.2z M836.2,167.4c0-4.6,0-16.1,0-16.1s-20.8-0.9-29.8,5.6   c-11.2,7.8-7.4,26.4,10.5,26.4C831.9,183.3,836.2,173.6,836.2,167.4z"/>
	<path class="st0" d="M1058.3,142.9c0,44-26.7,79.4-68.5,79.4c-15.5,0-36.9-9.9-42.2-19.2v14.6h-52.1V0.6h52.1v76.6   c12.1-8.4,26.7-13.3,42.2-13.3C1031.7,63.9,1058.3,99.2,1058.3,142.9z M1006.3,143.3c0-19.2-12.4-34.4-28.8-34.4   s-29.8,15.2-29.8,34.4c0,18.9,13.3,34.4,29.8,34.4S1006.3,162.2,1006.3,143.3z"/>
	<path class="st0" d="M1185.7,68.8l-12.4,54.6c-7.4-3.1-15.8-7.8-30.4-6.8c-10.5,0.6-27,6.8-27,30.7c0,7.8,0,70.4,0,70.4h-52.4V68.8   h52.4v14.3c4.7-6.5,23.3-19.2,42.8-19.2C1169.9,63.9,1181.9,67.3,1185.7,68.8z"/>
	<path class="st0" d="M1240.7,68.8v148.8h-52.1V68.8H1240.7z M1188.9,25.7c0-14.3,11.5-25.7,25.7-25.7c14.3,0,25.7,11.5,25.7,25.7   c0,14.3-11.5,25.7-25.7,25.7C1200.4,51.5,1188.9,40,1188.9,25.7z"/>
	<g>
		<path class="st0" d="M1452.8,194.3c1.8,0,3.5-0.2,6.2-0.4c-2.8-4.5-4.8-8.3-7.3-11.7c-1-1.4-3.1-2.7-4.7-2.7    c-20.6-0.2-41.3-0.2-61.9,0c-1.6,0-3.7,1.4-4.5,2.8c-2.7,4.5-4.9,9.3-7.3,14c-3.6,7.1-3.6,7.1-11.9,5.6    c4.4-8.8,8.9-17.4,13.1-26.2c1.7-3.5,3.6-4.9,7.7-4.8c18.8,0.2,37.5,0.1,56.3,0.1c1.8,0,3.6,0,6.1,0c-2.7-5.3-5-9.7-7.6-14.7    c-22.7,0-46.9,0-70.2,0c-0.6,2-0.9,3.5-1.5,4.8c-5.9,11.8-11.9,23.5-17.9,35.3c-3.4,6.9-3.4,6.9-11.8,5.5c0.9-2,1.8-4,2.7-5.9    c7.5-15.1,15.2-30.1,22.6-45.3c1.4-3,3.5-3,6-3c15.9,0,31.9,0.6,47.8-0.2c6.4-0.3,14,0.4,19.2-5.4c0.2,1.5,26.6-53.7,39.2-78.5    c-1.5-0.3-2.3-0.6-3-0.6c-20.8,0-41.6-0.1-62.4,0.1c-1.6,0-3.9,1.8-4.8,3.4c-3,5.1-5.7,10.3-8,15.7c-1.4,3.3-3.4,4.1-6.8,4.1    c-16.5-0.1-33-0.1-49.5-0.1l0.8-8.2c14.4,0,28.8,0,43.1,0c1.5,0,3-0.2,5.4-0.3c-2.4-4-4.6-7.3-6.4-10.8c-1.5-3.1-3.7-3.9-7-3.9    c-14.7,0.1-42.2,0.3-56.1,0.6c-0.1,0-0.2,0-0.3,0c-1.8,0-3.5,0.1-5.2,0.2c-1.3,0.1-2.2,0.1-2.6,0.2l0,0    c-39.1,3.5-65.3,33.5-65.3,78.6c0,49,26,75.3,66.4,75.3c2.8,0,5.3-0.1,7.7-0.3c19.1,0,38.2,0.1,57.3-0.1c1.5,0,3.6-1.6,4.4-3.1    c2.9-5,5.4-10.1,7.8-15.3c1.6-3.5,3.7-4.9,7.8-4.9C1415.3,194.4,1434.1,194.3,1452.8,194.3z M1292,140.7    c0-24.8,11.7-37.5,29.1-38.9c7.1-0.6,13.1-0.3,16.2-0.5v0c0.2,0,0.3,0,0.5,0c20.3-0.1,40.7,0,61-0.2c1.7,0,4-1.5,4.9-3    c2.8-4.6,5-9.6,7.5-14.4c3.2-6.4,4.1-6.8,11.6-4.8c-4.4,8.7-9,17.3-13.1,26.2c-1.7,3.7-3.9,4.6-7.8,4.6    c-18.9-0.2-37.8-0.1-56.8-0.1c-1.5,0-3,0-5.7,0c2.9,4.8,4.9,8.7,7.4,12.1c1.1,1.4,3.3,2.7,5,2.7c19.8,0.2,39.7,0,59.6,0.2    c3.8,0,5.8-1.1,7.5-4.5c6-12.3,12.2-24.4,18.4-36.5c3.3-6.4,3.7-6.6,11.2-4.8c-0.2,0.6-0.3,1.2-0.5,1.7    c-8.4,16.6-16.8,33.2-25.4,49.7c-0.7,1.4-3.1,2.6-4.8,2.7c-5.7,0.3-11.4,0.1-17.2,0.1c-14.6,0-29.1-0.1-43.7,0.1    c-1.2,0-2.9,1.2-3.6,2.3c-3.3,5.5-6.4,11.1-9.3,16.7c-4.4,8.7-8.8,17.4-13.2,26.1c-3.1,0.9-6.6,1.4-10.5,1.4    C1302.7,179.5,1292,164.5,1292,140.7z"/>
		<path class="st0" d="M1466.9,206.5c-1.6-3.2-3.8-4.1-7.4-4.1c-19.2,0.2-38.5,0.1-57.7,0.1c-1.6,0-3.2,0.1-5.8,0.3    c2.4,4,4.5,7.2,6.2,10.6c1.6,3.1,3.8,4.2,7.4,4.2c18.4-0.2,36.9-0.1,55.4-0.1c2.3,0,4.6,0,8.4,0    C1470.8,213.1,1468.6,209.9,1466.9,206.5z"/>
	</g>
</g>
</svg>